<?xml version="1.0" standalone="no"?>
<!DOCTYPE svg PUBLIC "-//W3C//DTD SVG 20010904//EN"
 "http://www.w3.org/TR/2001/REC-SVG-20010904/DTD/svg10.dtd">
<svg version="1.0" xmlns="http://www.w3.org/2000/svg"
 width="512.000000pt" height="512.000000pt" viewBox="0 0 512.000000 512.000000"
 preserveAspectRatio="xMidYMid meet">
<metadata>
Created by potrace 1.11, written by Peter Selinger 2001-2013
</metadata>
<g transform="translate(0.000000,512.000000) scale(0.100000,-0.100000)"
fill="#000000" stroke="none">
<path d="M2167 4873 c-4 -98 -10 -191 -15 -207 l-8 -30 -20 30 c-12 16 -43 71
-69 121 -27 51 -50 92 -51 90 -3 -2 60 -230 82 -300 4 -13 2 -17 -5 -13 -14 9
-14 5 4 -37 34 -82 9 -67 -88 53 -62 77 -65 71 -16 -37 15 -35 24 -63 19 -63
-5 0 -31 32 -59 72 -28 40 -51 67 -51 62 0 -6 12 -39 26 -75 15 -35 31 -75 36
-89 6 -14 11 -56 12 -95 1 -38 8 -80 14 -92 7 -12 12 -32 12 -44 0 -18 2 -19
15 -9 12 10 20 9 40 -4 13 -9 26 -16 29 -16 2 0 -4 28 -15 63 -10 34 -19 63
-19 65 0 1 18 2 40 2 22 0 40 -1 40 -2 0 -2 7 -37 15 -78 28 -132 34 -150 55
-150 10 0 22 -9 25 -20 11 -35 20 -21 20 32 0 44 3 53 19 56 18 4 19 -1 13
-62 -6 -61 -5 -66 13 -66 17 0 20 -7 20 -46 0 -46 0 -46 29 -41 24 5 31 2 36
-14 4 -11 13 -18 20 -15 7 2 23 -6 36 -20 30 -32 34 -24 9 19 -22 37 -20 57 6
57 16 0 17 5 5 46 -7 26 -5 34 10 48 26 22 29 21 29 -16 0 -53 10 -76 29 -71
9 2 30 -8 45 -22 l29 -27 -6 41 c-5 38 6 57 16 29 2 -7 10 4 17 25 15 40 24
45 46 22 13 -13 13 -18 -1 -45 -9 -17 -11 -30 -5 -30 5 0 10 -18 10 -40 0 -49
22 -54 40 -10 13 32 31 37 74 21 20 -8 26 -19 32 -58 l7 -48 14 33 c13 32 5
72 -16 72 -5 0 -11 8 -14 18 -3 9 -14 40 -25 69 -17 44 -18 53 -5 57 26 10 31
7 37 -29 6 -31 11 -35 36 -35 30 0 30 0 30 -59 l0 -59 50 -31 c55 -34 55 -34
40 -62 -12 -22 -7 -24 19 -7 15 9 24 7 50 -11 l31 -22 0 25 c0 19 5 26 20 26
23 0 23 1 10 -37 -8 -23 -7 -36 5 -59 8 -16 15 -22 15 -14 0 8 10 -3 21 -25
34 -64 60 -96 71 -89 8 5 9 -6 6 -34 -4 -23 -2 -42 4 -44 17 -6 49 -141 55
-238 7 -120 -17 -224 -83 -360 -85 -174 -255 -311 -455 -366 -79 -22 -269 -25
-349 -5 -86 21 -229 93 -296 148 -147 123 -245 315 -256 503 -2 38 1 54 9 53
8 -2 9 7 1 34 -6 21 -8 56 -4 80 3 26 0 55 -9 77 -19 44 -19 56 -1 56 8 0 19
-12 24 -27 9 -27 10 -25 17 22 4 28 18 64 31 82 23 30 23 33 10 100 -8 37 -14
59 -15 49 0 -11 -4 -17 -7 -13 -11 11 -23 81 -15 92 5 5 11 22 15 38 11 47 28
31 26 -25 -4 -78 -2 -88 16 -88 15 0 16 -9 11 -69 -6 -69 -5 -71 28 -106 l33
-37 -21 72 c-19 65 -19 75 -6 99 19 34 33 32 39 -5 5 -24 7 -26 13 -11 4 10 7
28 7 40 0 21 1 21 20 -3 24 -30 26 -20 5 21 -9 16 -20 27 -25 24 -6 -4 -10 -5
-10 -3 0 2 -11 34 -24 72 -23 65 -23 71 -8 83 28 21 42 15 42 -17 0 -41 44
-84 71 -70 23 13 24 20 4 46 -11 15 -15 16 -15 4 -2 -31 -41 109 -52 184 -8
63 -8 80 3 86 9 6 2 14 -24 26 -20 10 -39 16 -41 13 -2 -2 -6 -35 -9 -74 -3
-38 -11 -99 -19 -135 l-13 -65 -5 115 c-5 103 -6 112 -18 87 -6 -16 -12 -40
-12 -55 -1 -22 -5 -17 -25 28 -28 65 -30 80 -10 80 8 0 15 -9 15 -19 0 -11 4
-22 9 -26 12 -7 24 53 19 86 l-5 24 -11 -25 c-9 -22 -11 -19 -11 31 l-1 57
-111 81 -111 82 56 -82 c31 -45 55 -83 53 -86 -12 -11 -56 23 -65 51 l-10 31
-1 -27 c-1 -16 -2 -28 -4 -28 -1 0 -28 9 -60 20 -76 27 -87 25 -48 -8 32 -27
34 -32 38 -107 l5 -80 -52 50 c-59 56 -59 55 -13 -68 18 -49 28 -66 36 -58 6
6 19 11 29 11 13 0 18 -8 18 -29 0 -30 -44 -157 -62 -178 -6 -7 -8 -20 -4 -28
3 -8 2 -15 -3 -15 -4 0 -19 29 -33 64 -22 56 -24 66 -10 71 15 5 30 -8 33 -30
1 -5 5 15 8 45 5 48 3 60 -20 95 -14 22 -38 67 -53 100 l-27 60 5 -75 6 -75
-36 50 c-19 28 -45 67 -56 88 -29 57 -33 38 -9 -42 26 -85 26 -84 -1 -70 -18
10 -20 9 -15 -5 13 -34 -12 -14 -26 22 l-16 37 0 -35 c-1 -19 8 -78 19 -130
10 -52 18 -95 17 -97 -2 -1 -27 4 -57 12 -30 8 -64 15 -75 14 -17 0 -15 -2 8
-15 38 -21 27 -30 -12 -10 -49 26 -49 19 -1 -24 24 -21 41 -42 38 -45 -3 -4
-26 3 -50 15 l-43 21 62 -59 c33 -33 64 -68 67 -78 3 -11 3 6 1 37 -3 31 -2
58 0 61 3 3 17 3 31 0 24 -4 26 -8 21 -39 -4 -24 -2 -36 8 -40 9 -3 17 -26 21
-54 6 -44 13 -54 36 -50 3 0 14 -24 23 -54 17 -52 35 -65 35 -24 0 11 7 19 16
19 12 0 15 6 10 24 -3 14 -2 28 4 31 14 9 13 -19 -5 -95 -8 -36 -18 -92 -23
-125 l-9 -60 -2 72 c-1 66 -4 77 -43 137 -23 36 -45 66 -49 66 -3 0 -12 14
-19 30 -11 27 -29 41 -30 23 -1 -5 -7 -30 -15 -58 l-14 -50 0 45 c-1 25 -5 50
-9 55 -12 17 -122 107 -122 100 0 -3 14 -27 31 -51 17 -25 29 -48 26 -51 -7
-6 -60 29 -99 65 -16 14 -28 22 -28 17 0 -19 63 -105 106 -144 25 -22 42 -46
39 -51 -4 -6 -12 -43 -20 -83 l-13 -72 -2 50 c-4 104 -6 120 -13 133 -9 14
-88 55 -127 67 -21 6 -17 -1 22 -39 54 -53 76 -86 56 -86 -7 0 -46 18 -87 41
-40 22 -75 38 -78 36 -3 -4 54 -58 115 -109 17 -15 32 -29 32 -32 0 -2 -26 -8
-57 -12 -32 -4 -50 -10 -40 -12 27 -6 20 -22 -10 -22 -16 0 -35 -5 -43 -10
-12 -8 -12 -10 -1 -10 7 0 -12 -19 -43 -42 -31 -23 -55 -43 -53 -44 1 -1 40
11 87 27 85 29 210 41 210 20 0 -15 -42 -41 -65 -41 -17 0 -20 -7 -23 -49 -3
-58 7 -67 47 -46 17 8 33 15 36 15 8 0 -15 -33 -56 -78 -19 -21 -43 -48 -54
-60 l-19 -23 27 10 c36 14 34 4 -10 -41 -34 -35 -35 -38 -14 -38 37 0 17 -36
-65 -121 -41 -42 -74 -79 -74 -82 0 -10 154 75 170 94 8 9 24 19 35 21 15 2
20 11 20 38 0 26 -4 34 -16 32 -12 -2 -10 10 13 58 16 33 33 60 38 60 4 0 11
-21 14 -47 7 -53 7 -51 5 -181 -1 -51 1 -95 4 -99 4 -3 -1 -20 -10 -37 -11
-20 -17 -56 -18 -101 0 -38 -2 -110 -4 -160 l-3 -90 -18 55 c-11 30 -19 81
-19 112 -1 31 -5 59 -9 62 -10 6 -2 65 22 151 17 63 21 135 8 135 -4 0 -23
-26 -42 -57 -19 -31 -58 -81 -87 -112 -28 -31 -50 -57 -48 -59 2 -2 27 13 55
32 29 20 57 36 64 36 17 -1 -63 -67 -123 -101 -29 -17 -51 -33 -47 -36 3 -3
35 5 70 18 36 12 68 20 72 17 3 -3 -7 -26 -22 -50 -15 -23 -27 -52 -26 -63 0
-10 -8 -33 -18 -51 -11 -17 -45 -84 -75 -150 l-55 -119 70 75 c39 41 79 91 90
111 19 36 37 49 66 49 20 0 18 -13 -11 -73 -30 -65 -57 -175 -43 -179 13 -5
-6 -76 -26 -103 -14 -19 -15 -17 -11 20 l5 40 -13 -43 c-6 -24 -23 -52 -37
-62 -25 -20 -25 -20 -2 -20 12 0 22 -6 22 -12 0 -10 3 -10 9 0 5 8 16 12 25
10 13 -2 7 -13 -28 -47 -31 -31 -43 -38 -40 -24 5 18 -1 20 -67 26 -40 3 -74
5 -76 4 -1 -2 28 -16 65 -32 37 -15 68 -29 70 -31 2 -1 -24 -43 -57 -93 -34
-50 -59 -91 -55 -91 14 0 129 109 156 148 30 44 69 62 48 21 -15 -26 -10 -31
35 -32 l37 -1 -69 -66 c-38 -36 -108 -100 -156 -142 -48 -43 -85 -78 -81 -78
4 0 48 22 98 50 79 42 98 48 130 43 26 -4 35 -10 32 -19 -8 -20 11 -17 44 6
15 11 40 24 54 30 24 9 27 8 24 -7 -3 -17 -85 -53 -120 -53 -22 0 -103 -97
-86 -103 8 -3 3 -9 -12 -16 -14 -7 -30 -23 -37 -38 l-12 -25 54 7 55 6 -9 -24
c-10 -25 -9 -25 22 -16 18 5 33 9 34 9 1 0 0 -7 -3 -15 -4 -8 -1 -15 5 -15 14
0 -12 -54 -43 -89 l-21 -25 27 17 c27 17 58 23 58 10 0 -3 -12 -22 -27 -41
-15 -20 -21 -32 -13 -27 10 6 11 2 6 -19 -20 -83 -22 -76 19 -69 35 6 37 5 30
-17 -7 -22 -6 -23 44 -18 63 6 55 -6 -20 -30 -51 -16 -55 -19 -71 -67 l-17
-50 -1 48 0 47 -43 0 c-31 0 -49 -6 -62 -20 -10 -11 -30 -20 -44 -21 -14 0
-20 -3 -13 -6 22 -9 12 -27 -50 -92 -68 -70 -60 -73 30 -13 84 57 91 59 51 16
-19 -21 -41 -47 -49 -58 -13 -16 -11 -16 20 3 46 27 54 27 34 -4 -16 -25 -16
-25 11 -25 28 0 61 14 83 37 22 22 63 28 73 11 6 -10 18 -14 36 -10 22 3 26 2
16 -8 -6 -7 -21 -17 -34 -24 -12 -6 -24 -20 -25 -31 -3 -18 11 -109 23 -145 9
-27 -23 23 -57 88 l-33 62 -18 -30 c-14 -22 -32 -33 -76 -45 -32 -9 -66 -19
-75 -21 -29 -9 -21 2 33 41 28 20 49 38 46 41 -7 7 -88 -13 -101 -26 -8 -8 -6
-9 8 -4 16 6 15 1 -8 -29 -23 -31 -35 -37 -64 -37 -23 0 -33 -3 -26 -10 5 -5
49 -10 98 -12 l89 -3 -59 -39 c-32 -22 -70 -46 -84 -54 -24 -13 -24 -13 10 -7
19 4 46 9 60 12 39 9 12 -14 -30 -24 -55 -14 -36 -28 40 -29 39 0 73 -4 77 -7
3 -4 -14 -26 -39 -49 -24 -24 -51 -54 -60 -68 -21 -34 -31 -90 -16 -90 17 0
-40 -53 -137 -129 -44 -35 -82 -65 -85 -68 -10 -9 52 18 171 75 110 52 127 64
147 99 12 23 22 47 22 54 0 7 17 37 38 67 35 51 37 53 40 28 2 -14 10 -26 18
-26 16 0 18 -12 5 -25 -5 -6 -11 -21 -13 -35 -2 -16 -9 -24 -18 -22 -8 2 -12
1 -8 -3 4 -4 2 -19 -4 -34 -6 -14 -14 -39 -18 -56 -4 -16 -11 -39 -15 -49 -7
-17 -5 -18 21 -12 16 4 34 14 40 22 6 7 21 14 33 14 11 0 21 5 21 10 0 6 5 10
11 10 7 0 10 -13 7 -34 -3 -31 -2 -33 15 -25 25 14 32 36 19 62 -6 12 -13 41
-15 65 -4 36 -3 42 14 42 15 0 19 7 19 35 0 27 4 35 18 35 39 -1 43 -13 27
-81 -8 -35 -15 -72 -15 -82 0 -17 2 -17 31 3 36 27 45 21 31 -19 -6 -17 -9
-31 -6 -31 2 0 25 19 49 41 l45 42 0 -27 0 -28 25 30 c16 20 23 36 18 48 -5
14 -3 16 11 11 10 -4 21 -7 26 -7 18 0 21 -41 6 -65 -9 -14 -12 -25 -6 -25 5
0 10 3 10 8 0 16 42 34 53 23 26 -26 22 -6 -13 62 -49 97 -52 107 -35 107 7 0
16 -8 18 -17 3 -10 3 36 0 102 -5 102 -3 118 8 107 10 -10 14 -45 15 -130 1
-103 4 -126 29 -191 25 -66 32 -75 69 -92 66 -30 68 -23 10 37 -56 57 -63 80
-25 78 25 -1 26 5 6 53 -20 46 -19 53 5 53 18 0 20 -7 20 -59 0 -67 10 -80 89
-115 49 -23 60 -16 36 20 l-17 27 27 -7 c24 -6 26 -5 20 16 -4 13 -24 52 -45
88 -46 81 -51 95 -38 108 6 6 3 22 -10 48 -35 70 -37 84 -9 84 20 0 26 -6 31
-34 4 -19 10 -36 14 -38 4 -2 18 -30 30 -63 15 -43 17 -54 6 -37 -9 12 -20 22
-25 22 -13 0 39 -133 56 -146 8 -6 15 -22 15 -36 0 -27 20 -39 100 -64 59 -18
60 -18 25 12 l-30 26 35 -5 c19 -3 46 -8 59 -12 18 -6 23 -5 19 5 -2 8 -17 18
-34 23 -16 5 -38 18 -50 28 -11 11 -23 17 -26 14 -3 -3 -9 6 -12 20 -4 14 -20
47 -36 73 -23 38 -26 48 -14 50 8 2 13 11 10 20 -15 56 -13 61 8 17 23 -49 24
-49 31 -22 4 15 13 27 20 27 18 0 45 -44 45 -73 0 -30 29 -115 42 -123 5 -4 9
4 8 17 -5 53 0 79 15 79 19 0 35 -31 35 -69 0 -22 7 -35 26 -47 14 -10 33 -36
42 -58 l16 -40 7 29 c4 17 10 47 13 67 4 21 11 38 15 38 5 0 16 -24 25 -54 14
-43 23 -57 47 -66 38 -16 44 -10 22 28 -10 17 -15 34 -11 37 13 13 28 -6 39
-48 7 -30 16 -43 28 -43 13 0 16 6 13 23 -2 13 0 23 6 23 5 0 13 -21 18 -48
l7 -47 10 44 c8 31 7 49 -2 62 -15 25 0 54 29 56 14 1 24 -5 27 -18 3 -10 10
-19 16 -19 6 0 19 -8 29 -17 17 -15 20 -15 28 -3 6 11 1 23 -17 42 -15 16 -32
28 -38 28 -17 0 -55 43 -55 62 0 9 7 18 15 22 11 4 15 22 15 76 0 53 3 70 14
70 17 0 26 51 26 148 0 56 3 74 15 79 30 11 32 -4 21 -124 -3 -37 -3 -62 0
-55 14 32 24 5 23 -65 -1 -76 -1 -77 -14 -43 -7 19 -14 47 -14 63 -1 41 -14
33 -34 -22 -19 -54 -23 -126 -7 -136 6 -3 10 -17 10 -30 0 -16 6 -25 21 -27
12 -2 44 -32 72 -68 37 -47 42 -57 18 -35 -27 25 -33 27 -41 15 -18 -28 -8
-37 72 -66 36 -12 39 -12 28 1 -11 13 -9 20 9 39 13 14 19 29 15 39 -9 25 -23
21 -36 -10 l-11 -28 -7 32 c-4 18 -4 63 0 100 4 39 3 76 -2 87 -6 11 -6 22 0
28 15 15 55 5 67 -17 6 -11 23 -39 38 -62 15 -24 27 -47 27 -53 0 -5 5 -10 12
-10 6 0 35 -12 65 -26 52 -26 53 -27 53 -69 0 -34 -4 -45 -18 -49 -11 -4 -30
-18 -43 -32 -23 -25 -20 -24 49 10 64 32 72 39 72 65 0 22 -14 44 -60 90 -33
34 -60 66 -60 72 0 6 14 9 33 7 27 -2 33 -8 35 -30 3 -23 8 -28 29 -28 18 0
38 -13 63 -40 39 -43 89 -65 71 -32 -5 10 -19 26 -31 37 -27 24 -50 75 -50
110 0 24 3 26 33 23 26 -2 33 -8 35 -28 6 -51 44 -127 74 -150 17 -12 27 -17
23 -10 -8 14 8 12 122 -10 46 -9 64 -17 68 -31 10 -30 25 -12 25 29 0 32 -8
45 -55 92 -30 30 -55 59 -54 65 0 5 7 0 16 -12 8 -13 24 -23 34 -23 10 0 25
-10 34 -22 16 -22 16 -21 13 30 -2 28 1 52 5 52 5 0 5 5 2 10 -3 6 1 17 9 26
15 14 16 7 18 -78 0 -51 1 -97 1 -103 0 -5 -4 -21 -8 -35 -7 -22 -6 -23 8 -12
9 8 29 13 44 12 47 -3 60 0 35 10 -25 11 -37 33 -28 55 4 13 10 13 48 -1 28
-9 44 -11 46 -4 7 20 32 10 32 -13 0 -14 10 -29 29 -40 37 -22 44 -21 31 2
-15 28 -13 31 19 31 22 0 31 -6 41 -30 16 -39 30 -38 30 1 l0 32 113 -5 c105
-5 116 -7 182 -41 82 -43 97 -46 65 -12 l-23 25 30 0 c17 0 33 -6 36 -13 8
-20 97 -77 121 -77 15 0 11 7 -21 30 -54 40 -62 60 -23 60 17 0 30 -4 30 -10
0 -10 63 -30 95 -30 15 0 9 7 -20 24 -37 23 -38 24 -15 28 14 2 57 -4 95 -13
39 -9 88 -19 110 -22 37 -6 38 -5 21 8 -24 18 -19 18 64 0 l65 -13 -29 23 -30
24 45 3 44 3 -55 13 c-30 7 -66 16 -79 19 -18 4 -22 3 -17 -8 4 -8 -1 -4 -10
9 -21 28 -37 28 -28 0 4 -13 9 -30 11 -38 3 -8 -9 6 -26 32 -17 27 -31 53 -31
59 0 24 -53 99 -70 99 -18 0 -90 72 -90 90 0 6 7 10 15 10 23 0 18 24 -15 77
-33 52 -36 63 -17 63 7 0 30 -39 52 -86 23 -49 42 -79 45 -71 7 20 46 4 55
-22 6 -18 14 -21 68 -20 l62 0 -45 19 c-48 19 -47 20 30 42 l45 13 -40 3 c-22
2 -42 7 -45 11 -3 5 -29 15 -58 24 -53 15 -53 15 -46 -6 4 -12 -13 1 -37 31
-23 28 -52 58 -64 66 -12 8 -37 33 -55 56 l-33 41 34 -3 c26 -2 34 -8 39 -28
6 -24 10 -25 110 -32 58 -4 139 -11 180 -17 41 -5 76 -8 78 -6 2 1 -34 15 -80
30 -117 38 -136 47 -141 66 -3 11 -27 24 -61 35 -31 10 -56 21 -56 25 0 4 17
14 37 21 l37 13 -40 5 -39 5 45 17 45 16 -30 12 c-32 13 -49 16 -105 19 -29 2
-32 4 -15 11 11 5 15 9 8 9 -7 1 -29 17 -50 36 -32 30 -40 33 -49 20 -6 -8
-14 -12 -17 -8 -12 12 -7 -17 13 -74 25 -70 25 -71 1 -42 l-19 24 -8 -63 c-8
-75 -19 -70 -29 12 -6 51 -5 58 9 53 21 -8 20 1 -3 40 -27 43 -41 97 -30 114
8 11 16 7 39 -20 33 -39 51 -37 25 3 -12 17 -13 26 -5 26 6 0 9 8 6 18 -16 59
-17 82 -3 82 19 0 27 -21 27 -68 0 -47 8 -57 48 -65 36 -7 38 -3 17 33 -25 44
-20 49 48 43 l62 -5 -45 31 c-72 49 -94 65 -108 78 -20 20 -31 16 -26 -9 3
-14 -3 -8 -16 15 -12 21 -19 44 -17 50 3 7 -4 27 -15 45 l-20 32 28 0 c29 0
46 -17 68 -67 15 -33 24 -37 136 -62 91 -21 97 -12 18 26 -43 20 -78 40 -78
44 0 4 17 6 38 3 37 -5 37 -5 -17 23 -30 15 -65 38 -77 51 -13 12 -32 22 -44
22 -11 0 -44 12 -73 27 l-52 28 33 3 c29 3 32 6 26 30 -4 15 -11 37 -15 50
-13 35 -11 52 8 52 13 0 11 6 -10 28 -35 36 -34 42 6 42 25 0 36 -6 49 -30 16
-29 54 -50 113 -64 28 -6 26 -3 -25 44 -37 33 -49 49 -37 50 26 0 21 13 -29
66 -45 48 -64 75 -64 90 0 4 11 -3 25 -16 30 -28 32 -16 6 24 -35 53 -2 57 54
6 17 -16 42 -39 56 -51 52 -49 63 -53 26 -11 -21 24 -37 46 -34 48 2 3 44 -7
93 -21 48 -14 91 -24 96 -23 5 2 -28 25 -71 51 -93 55 -102 65 -58 59 37 -4
28 5 -35 39 -41 21 -48 35 -20 42 12 2 7 8 -20 22 -21 10 -38 22 -38 26 0 15
65 -11 81 -32 9 -12 22 -20 30 -17 9 3 -1 15 -28 34 -29 20 -42 36 -43 52 0
19 4 22 23 17 24 -7 11 7 -87 90 -50 43 -99 110 -94 127 2 6 26 -17 53 -51 50
-64 71 -73 68 -28 -1 20 2 24 15 20 13 -5 12 -1 -5 23 -11 16 -30 48 -42 72
l-22 43 42 -23 c34 -19 48 -36 75 -93 18 -38 33 -68 33 -65 2 12 -29 158 -38
183 -26 67 0 54 38 -18 25 -48 29 -21 6 45 -8 23 -15 46 -15 51 0 4 24 9 53
11 l52 3 -75 20 c-57 15 -85 29 -117 59 -51 46 -55 34 -18 -56 14 -34 23 -63
21 -65 -2 -2 -23 35 -47 82 -49 94 -47 105 19 105 19 0 47 8 63 17 25 15 33
16 50 5 12 -8 23 -11 25 -9 3 3 -10 14 -29 26 -42 26 -75 61 -57 61 7 0 -5 12
-26 26 -57 38 -94 75 -94 95 0 10 -22 54 -49 98 -27 44 -52 90 -56 103 -4 13
-11 28 -16 33 -15 20 -29 65 -19 65 5 0 13 -12 16 -27 11 -45 15 -46 35 -14
10 17 23 31 29 31 12 0 12 0 -1 -39 -10 -28 -6 -43 31 -137 33 -82 48 -108 67
-115 14 -5 43 -22 66 -37 23 -16 65 -41 92 -57 l50 -28 -62 58 c-35 31 -63 61
-63 66 0 5 12 9 28 10 25 0 23 2 -15 19 -24 11 -43 24 -43 31 0 6 7 8 16 5 9
-4 2 11 -17 33 -46 54 -79 98 -79 105 0 7 43 -1 80 -15 14 -6 44 -39 69 -79
25 -39 46 -68 48 -66 9 9 -60 166 -92 212 -19 27 -35 53 -35 57 0 5 15 6 33 2
30 -6 31 -5 13 9 -10 9 -23 13 -27 10 -5 -3 -9 -1 -9 4 0 6 -19 17 -42 27 -32
12 -39 19 -27 26 7 5 22 9 32 9 20 0 23 23 5 37 -7 6 -26 15 -43 21 l-30 10
33 12 c17 7 32 14 32 16 0 12 -50 113 -59 118 -6 4 -11 16 -11 26 0 10 -9 25
-20 33 -19 13 -19 15 -4 28 8 7 48 16 87 19 l72 6 -42 14 c-24 7 -43 17 -43
21 0 5 17 16 38 26 l37 17 -70 6 c-57 4 -78 11 -115 37 -25 17 -48 29 -52 27
-4 -3 -15 11 -25 30 -9 20 -22 36 -28 36 -8 0 -10 10 -7 25 4 24 32 36 32 15
0 -5 21 -10 46 -10 52 0 51 -16 -2 -26 -25 -5 -34 -11 -30 -21 3 -8 6 -19 6
-24 0 -18 44 2 78 34 35 33 42 53 16 43 -9 -4 -23 -1 -31 6 -8 6 -58 14 -111
18 l-97 6 38 16 c21 10 70 21 110 26 l72 9 -49 13 -48 13 28 12 29 13 -43 7
c-23 4 -45 11 -47 15 -3 5 11 18 30 30 20 12 35 24 33 26 -2 2 -42 -10 -88
-25 -53 -18 -85 -34 -84 -42 0 -8 4 -39 7 -69 7 -60 -4 -47 -23 28 -6 24 -18
46 -26 49 -7 3 -14 9 -14 14 0 17 84 102 130 132 l45 29 -35 -7 c-19 -3 -61
-19 -93 -36 -31 -16 -60 -29 -63 -29 -6 0 2 89 13 140 3 14 -20 -20 -51 -75
-31 -54 -56 -102 -56 -105 0 -4 13 -31 30 -61 16 -30 36 -73 45 -95 l16 -39
-36 40 c-55 63 -101 138 -87 143 7 2 10 8 6 13 -3 5 3 21 14 37 25 35 102 188
102 202 0 6 -15 -1 -34 -15 -19 -14 -65 -39 -103 -55 l-68 -29 0 -93 c0 -88
16 -158 35 -158 9 0 31 -58 55 -142 8 -32 18 -65 21 -75 3 -10 -5 0 -16 22
-12 22 -29 51 -38 65 l-16 25 -7 -35 c-34 -176 -42 -210 -49 -210 -5 0 -10 17
-12 38 l-4 37 -12 -29 c-24 -55 -24 -16 -1 76 23 94 41 128 65 128 16 0 5 36
-29 90 l-22 35 -5 -65 -5 -65 -17 90 c-9 50 -20 118 -24 153 -5 53 -4 62 10
62 12 0 16 11 16 46 0 45 1 45 28 40 18 -4 47 3 87 20 l60 25 -89 -6 -90 -5
24 27 c13 16 40 43 59 60 48 44 27 41 -69 -7 -44 -22 -80 -37 -80 -33 0 15 42
78 63 96 l22 19 -30 -7 c-16 -3 -59 -19 -94 -36 l-64 -29 7 -90 c4 -49 15
-113 25 -143 17 -52 17 -55 0 -44 -32 20 -88 188 -89 265 0 27 3 32 24 32 16
0 32 10 44 28 24 34 44 72 38 72 -3 0 -33 -23 -68 -51 -34 -27 -64 -46 -66
-40 -2 5 10 52 27 104 35 110 51 199 50 277 l-1 55 -19 -75 c-17 -72 -165
-388 -181 -389 -14 -2 -8 54 13 135 12 43 23 115 25 159 l4 80 -47 -97 c-46
-98 -65 -121 -55 -73 3 17 0 25 -8 23 -18 -4 -42 80 -35 127 6 37 5 39 -9 20
-13 -18 -14 -17 -10 25 l5 45 -20 -48 c-24 -58 -149 -185 -163 -165 -5 7 -18
28 -29 46 l-21 33 54 110 c43 85 50 105 31 87 -19 -17 -66 -77 -111 -138 -2
-2 -8 2 -13 10 -8 12 -10 10 -5 -9 4 -21 -30 -109 -39 -99 -2 1 1 41 6 87 5
46 8 86 5 88 -2 2 -17 -32 -33 -76 -35 -100 -41 -88 -42 89 -2 156 -13 143
-37 -42 -10 -76 -19 -136 -22 -134 -2 3 -12 35 -22 73 l-19 68 0 -89 -1 -90
-31 30 c-26 23 -29 25 -20 7 14 -28 14 -34 -3 -27 -20 8 -28 -37 -10 -63 8
-13 11 -23 6 -23 -17 0 -40 26 -51 59 -9 29 -9 32 4 21 12 -10 15 -9 15 8 0
11 -6 27 -14 34 -7 8 -16 45 -20 83 -8 80 -37 289 -40 293 -2 1 -6 -78 -9
-175z m649 -299 c-8 -20 -28 -17 -23 4 3 9 9 35 13 57 l8 40 4 -44 c2 -24 1
-50 -2 -57z m-84 23 c-17 -39 -42 -70 -42 -52 0 13 52 107 57 102 2 -3 -4 -25
-15 -50z m-144 -93 c-27 -46 -32 -33 -23 54 l8 67 18 -42 c19 -41 19 -42 -3
-79z m-153 30 c8 -58 0 -68 -14 -17 -13 47 -14 63 -2 63 5 0 12 -21 16 -46z
m446 -55 l-8 -44 -11 28 c-16 39 -15 55 6 59 23 6 23 7 13 -43z m-338 -55 c-2
-38 -12 -94 -22 -124 l-20 -55 0 112 c-1 123 4 146 28 141 13 -3 16 -16 14
-74z m-369 14 c-3 -18 -12 -51 -19 -73 l-13 -40 -1 66 c-1 68 3 79 26 79 11 0
13 -8 7 -32z m500 7 c-3 -71 -19 -177 -25 -181 -5 -3 -9 4 -9 16 0 12 -4 18
-10 15 -5 -3 -10 -15 -10 -25 0 -10 -5 -20 -10 -22 -6 -2 -17 -26 -25 -53 -16
-61 -18 -33 -5 88 5 49 14 95 20 102 7 8 8 19 4 26 -4 7 3 19 17 30 25 19 54
21 53 4z m-602 -95 c-9 -23 -10 -22 -17 19 -5 32 -4 46 6 52 18 11 24 -35 11
-71z m358 2 c0 -11 5 -22 10 -24 18 -6 -9 -200 -31 -229 l-19 -24 0 56 c0 31
-7 75 -15 98 -8 23 -12 47 -9 54 2 7 0 34 -5 60 -7 37 -6 47 5 47 8 0 14 7 14
15 0 10 7 7 25 -9 14 -13 25 -33 25 -44z m421 18 c5 0 9 -11 9 -24 0 -19 6
-25 30 -28 26 -4 30 -1 30 19 0 14 6 23 15 23 9 0 15 -9 15 -25 0 -26 54 -89
103 -120 38 -24 29 -28 -23 -10 -52 18 -57 15 -95 -64 -41 -88 -51 -85 -60 14
-4 46 -4 89 -1 94 4 5 2 12 -4 16 -6 4 -10 -14 -10 -49 0 -31 -4 -56 -8 -56
-9 0 -42 151 -42 194 0 22 4 27 16 22 9 -3 20 -6 25 -6z m-504 -62 c-3 -7 -5
-2 -5 12 0 14 2 19 5 13 2 -7 2 -19 0 -25z m373 -20 c-1 -45 -11 -38 -24 15
-5 20 -3 27 9 27 11 0 15 -11 15 -42z m-500 -70 c0 -78 -12 -82 -27 -8 -7 31
-6 51 1 63 20 31 26 18 26 -55z m-544 5 c-7 -16 -9 -16 -21 7 -23 40 -19 58 6
33 15 -14 19 -27 15 -40z m640 27 c12 0 14 -8 9 -37 -10 -61 -17 -72 -25 -38
-9 34 -11 107 -3 88 2 -7 11 -13 19 -13z m344 -25 c0 -9 9 -43 20 -76 12 -34
19 -64 16 -66 -5 -6 -76 131 -76 147 0 5 9 10 20 10 11 0 20 -7 20 -15z m-990
-104 c0 -11 6 -21 12 -23 10 -4 10 -10 1 -31 -11 -24 -11 -27 7 -27 17 0 20
-7 21 -42 1 -24 3 -68 4 -98 2 -40 1 -49 -6 -32 -13 35 -19 26 -19 -33 0 -41
3 -53 13 -49 15 5 34 -15 64 -67 11 -20 28 -49 38 -65 9 -16 -14 3 -53 43 -38
40 -72 69 -76 66 -12 -12 -5 -69 14 -113 l20 -45 -30 35 c-17 19 -39 52 -50
75 -18 36 -18 40 -4 43 12 3 15 11 10 35 -16 79 -18 127 -7 127 6 0 11 -4 11
-10 0 -21 18 -9 30 20 10 24 9 42 -4 101 -19 83 -20 109 -6 109 6 0 10 -9 10
-19z m1450 -76 c0 -19 -4 -35 -10 -35 -5 0 -10 6 -10 13 0 6 -3 22 -6 35 -5
16 -2 22 10 22 12 0 16 -9 16 -35z m-1600 15 c0 -6 -8 -27 -17 -48 -9 -20 -23
-55 -30 -77 l-12 -40 5 50 c3 28 5 67 6 88 0 32 3 37 24 37 13 0 24 -5 24 -10z
m-84 -68 c-6 -5 -49 19 -58 32 -4 6 -8 18 -8 25 0 9 14 2 35 -19 19 -18 33
-35 31 -38z m404 64 c0 -3 -4 -8 -10 -11 -5 -3 -10 -1 -10 4 0 6 5 11 10 11 6
0 10 -2 10 -4z m1185 -52 c12 -18 13 -28 4 -41 -8 -13 -7 -35 4 -83 9 -36 14
-66 12 -68 -4 -4 -60 105 -70 137 -5 17 -2 21 15 21 20 0 20 1 5 30 -8 16 -15
31 -15 34 0 13 30 -8 45 -30z m-1166 -46 c0 -80 -13 -69 -25 22 -6 42 -4 50
10 50 13 0 16 -12 15 -72z m1262 -35 c17 -29 26 -53 20 -53 -19 0 -103 88 -96
100 15 24 47 4 76 -47z m144 -33 c12 0 15 -15 15 -72 0 -78 -3 -81 -24 -22
l-15 39 0 -55 c-1 -66 -13 -56 -33 28 -15 59 -15 62 3 62 16 0 19 8 20 43 l1
42 9 -32 c5 -18 16 -33 24 -33z m332 -80 c24 -74 27 -94 13 -85 -11 7 -53 86
-71 131 -8 23 -7 25 13 22 18 -2 27 -16 45 -68z m-2282 50 c3 -5 2 -10 -4 -10
-5 0 -13 5 -16 10 -3 6 -2 10 4 10 5 0 13 -4 16 -10z m2375 -100 c11 -6 17
-17 14 -25 -4 -8 -1 -15 5 -15 6 0 11 -10 11 -22 1 -13 7 -39 14 -59 10 -29
10 -37 -1 -47 -7 -7 -13 -29 -14 -50 0 -20 -6 -53 -13 -72 l-13 -35 -12 80
c-8 54 -8 81 -1 83 18 6 11 43 -15 74 -27 32 -32 67 -13 86 15 15 15 15 38 2z
m125 -40 c17 -7 15 -9 -12 -9 -17 -1 -35 4 -38 9 -7 12 22 12 50 0z m-644 -43
c-10 -9 -11 -8 -5 6 3 10 9 15 12 12 3 -3 0 -11 -7 -18z m448 -58 c6 -29 10
-53 8 -55 -2 -2 -15 21 -30 51 -25 51 -26 55 -8 55 15 0 22 -11 30 -51z m-175
-5 c3 -9 6 -38 6 -65 0 -36 4 -49 14 -49 10 0 21 -22 32 -60 13 -48 21 -60 37
-60 19 0 20 -4 14 -82 -4 -46 -7 -123 -7 -173 0 -83 -1 -88 -14 -63 -8 15 -17
40 -21 57 -4 17 -11 31 -16 31 -5 0 -9 8 -9 19 0 10 -12 45 -26 77 -41 91 -75
216 -69 246 4 15 2 42 -2 60 -14 54 -6 78 27 78 16 0 30 -7 34 -16z m-98 -28
c-2 -11 -8 -54 -12 -94 -3 -40 -11 -75 -15 -78 -8 -4 -11 30 -13 161 -1 33 10
46 31 38 9 -4 12 -14 9 -27z m-1982 -22 c3 -26 6 -65 5 -88 0 -35 -2 -38 -9
-18 -15 36 -24 152 -13 152 6 0 13 -21 17 -46z m314 -194 c0 -79 4 -106 18
-128 l17 -27 -21 19 c-21 18 -21 18 -26 -5 -3 -13 -10 -62 -16 -109 -5 -46
-11 -89 -11 -95 -4 -31 -17 104 -18 187 -1 85 -4 103 -31 160 -21 45 -26 64
-17 67 6 2 15 9 19 15 4 7 25 13 47 14 l40 3 -1 -101z m2147 44 c11 -28 13
-48 6 -83 -8 -42 -10 -44 -17 -21 -8 21 -10 16 -17 -35 -4 -33 -8 -76 -8 -95
-1 -33 -3 -32 -34 35 -47 99 -51 115 -27 115 11 0 22 7 26 15 3 8 15 15 26 15
17 0 20 6 20 45 0 25 2 45 5 45 3 0 12 -16 20 -36z m-2531 -51 c29 -58 52
-159 50 -223 -1 -59 2 -69 31 -110 50 -68 77 -90 103 -83 26 6 27 13 5 84 -14
48 -20 225 -7 238 2 2 11 -2 20 -10 13 -11 15 -24 10 -66 -4 -38 -2 -60 8 -76
7 -12 16 -50 20 -84 9 -101 35 -201 53 -205 9 -2 24 -31 37 -73 27 -82 88
-190 117 -206 12 -6 22 -9 24 -7 2 2 -2 40 -8 86 -7 57 -7 86 -1 90 6 4 15 15
20 25 18 31 10 -211 -8 -275 -15 -51 -15 -63 -2 -120 8 -34 23 -72 34 -83 11
-11 37 -74 59 -140 40 -122 39 -124 -25 -34 -21 31 -42 80 -100 239 -4 13 -6
13 -14 0 -15 -24 -10 68 7 138 9 34 14 63 12 65 -3 1 -27 24 -56 50 -47 45
-50 47 -45 22 2 -15 11 -29 18 -32 11 -4 14 -35 14 -137 0 -119 -1 -129 -14
-104 -21 40 -49 174 -42 201 3 13 -3 48 -14 78 -11 30 -19 63 -18 74 1 11 -8
50 -21 87 -12 37 -20 72 -17 77 3 5 -2 29 -13 53 l-18 43 -8 -60 c-11 -82 -24
-113 -24 -59 -1 67 -12 103 -32 109 -10 4 -45 26 -78 50 l-61 45 -16 -58 c-8
-31 -17 -61 -19 -67 -8 -18 7 219 15 239 6 18 8 18 28 -4 20 -21 20 -20 -3 36
-14 33 -25 65 -25 72 0 7 -11 35 -25 62 -14 27 -25 56 -25 65 0 26 38 17 54
-12z m2062 7 c8 0 31 -35 53 -81 28 -59 33 -75 19 -62 -23 20 -98 144 -97 159
0 5 3 3 6 -3 2 -7 11 -13 19 -13z m-1966 -2 c0 -27 19 -176 26 -204 6 -28 6
-28 -19 8 -49 71 -73 192 -39 201 29 8 32 7 32 -5z m2240 -145 c0 -5 -8 -45
-17 -90 -19 -92 -39 -113 -29 -30 3 28 6 69 6 90 0 30 4 37 20 37 11 0 20 -3
20 -7z m-310 -108 c0 -28 4 -35 20 -35 17 0 20 -7 20 -44 0 -24 4 -46 8 -48 9
-3 74 -189 69 -194 -1 -2 -22 34 -45 79 -24 45 -48 89 -53 97 -5 8 -14 29 -20
45 -12 36 -20 26 -40 -53 -8 -33 -16 -47 -21 -40 -13 21 -9 62 8 86 10 14 16
43 16 74 -1 58 3 68 24 68 9 0 14 -11 14 -35z m-1531 15 c8 0 35 -99 29 -106
-3 -2 -20 23 -38 57 -26 48 -29 61 -16 56 10 -4 21 -7 25 -7z m2046 -176 c-9
-15 -13 -24 -7 -21 10 7 23 -86 21 -157 -1 -37 -2 -35 -15 26 -8 37 -18 78
-23 90 -8 21 -9 20 -29 -17 -18 -35 -21 -37 -21 -15 0 14 6 58 12 98 10 61 16
75 37 85 24 13 25 12 34 -25 7 -29 5 -43 -9 -64z m-368 37 c7 -24 15 -53 19
-65 6 -20 -40 45 -66 93 -10 21 -9 22 11 19 18 -2 26 -14 36 -47z m118 -50
l-8 -46 -13 35 c-17 47 -17 70 1 70 8 0 16 6 16 13 1 6 3 4 6 -7 3 -10 2 -39
-2 -65z m-1978 6 c11 -18 22 -59 26 -92 l6 -60 -34 70 c-18 39 -35 80 -38 93
-6 33 18 27 40 -11z m137 -3 c12 -5 16 -20 15 -68 -1 -59 -1 -60 -14 -31 -15
35 -30 105 -22 105 3 0 12 -3 21 -6z m1922 -106 c9 -35 25 -81 36 -103 l19
-40 -25 28 c-14 15 -27 27 -30 27 -3 0 -6 -21 -8 -47 l-3 -48 -13 60 c-7 33
-19 83 -27 111 -18 62 -19 111 -2 117 16 6 34 -29 53 -105z m-340 30 c-4 -35
-8 -91 -11 -124 -2 -34 -9 -81 -14 -105 -6 -24 -11 -60 -12 -79 -1 -30 -3 -26
-15 25 -10 45 -11 79 -4 135 17 133 19 155 20 183 0 21 5 27 21 27 20 0 21 -4
15 -62z m584 -12 c0 -24 -3 -65 -7 -92 l-7 -49 -7 40 c-14 73 -11 145 6 145
11 0 15 -12 15 -44z m-310 -193 c12 -45 17 -53 37 -53 19 0 28 -11 47 -52 l24
-53 12 33 c8 21 19 32 32 32 11 0 18 -3 16 -7 -2 -5 -12 -25 -23 -46 l-20 -39
33 -29 c37 -33 34 -36 -11 -12 -18 9 -35 16 -39 15 -5 -1 -8 2 -8 7 0 9 -59
103 -81 129 -18 22 -56 123 -72 194 -13 61 -13 69 1 90 16 22 17 19 28 -67 6
-50 17 -114 24 -142z m-1713 155 c6 -7 25 -58 43 -113 18 -55 37 -108 42 -118
9 -18 10 -18 23 0 13 16 14 14 15 -24 0 -23 4 -45 10 -48 5 -3 7 -25 4 -48 -4
-29 0 -60 14 -99 20 -56 20 -58 1 -48 -26 14 -24 2 10 -59 l28 -52 7 40 c4 27
11 41 22 41 12 0 14 7 8 35 -6 31 -4 35 16 35 19 0 21 -4 15 -32 -4 -18 -11
-35 -15 -38 -7 -5 -33 -104 -33 -127 0 -7 -16 5 -35 28 -19 22 -36 38 -38 36
-2 -2 3 -28 10 -58 14 -52 15 -82 1 -40 -3 12 -11 21 -17 21 -5 0 -7 -7 -4
-16 20 -52 13 -63 -11 -16 -15 28 -30 52 -34 52 -15 0 -20 -40 -10 -75 11 -42
-2 -36 -32 14 -17 29 -17 30 3 36 14 5 19 13 15 28 -2 12 -11 50 -18 84 -8 34
-11 64 -6 65 4 2 -3 30 -18 63 -34 81 -40 115 -19 115 20 0 21 20 1 46 -11 15
-15 16 -15 4 0 -8 -10 -33 -21 -55 l-20 -40 7 90 c3 50 6 108 6 130 1 22 3 30
5 18 3 -17 11 -23 29 -23 24 0 24 0 9 35 -8 19 -22 51 -30 70 -9 20 -13 40
-10 45 9 14 31 12 42 -2z m1938 -78 c26 -101 25 -105 -10 -40 -38 73 -43 93
-18 88 10 -2 21 -20 28 -48z m-2519 -49 c4 -17 10 -22 25 -18 13 4 19 1 16 -6
-14 -35 -18 -51 -9 -39 6 9 11 -25 15 -100 3 -62 12 -133 21 -158 9 -25 16
-69 16 -97 0 -46 3 -53 20 -53 12 0 26 -12 35 -30 9 -16 17 -30 19 -30 2 0 3
45 3 100 0 63 4 105 11 112 7 7 12 22 12 34 0 19 4 21 28 15 22 -6 31 -18 49
-70 25 -73 33 -85 33 -48 0 18 5 27 15 27 13 0 16 -17 14 -107 -1 -116 5 -140
80 -323 l31 -75 -26 30 c-14 17 -42 48 -61 70 -39 44 -79 115 -93 164 -8 29
-7 31 16 31 22 0 24 4 24 43 0 39 -44 136 -68 151 -8 5 -26 -185 -24 -253 0
-18 -2 -20 -9 -10 -5 8 -9 10 -9 4 0 -5 -11 13 -24 40 -13 28 -36 65 -50 84
l-26 35 -1 -55 -1 -54 -18 80 c-11 44 -19 93 -19 108 -1 15 -10 56 -22 90 -12
34 -21 78 -21 97 1 83 -10 76 -54 -35 -24 -61 -44 -103 -44 -95 -1 44 34 192
46 197 11 4 14 30 14 107 0 68 4 106 13 115 10 10 13 6 15 -21 1 -18 5 -44 8
-57z m2182 70 c9 -5 12 -28 10 -77 l-3 -69 -12 60 c-6 33 -14 68 -18 78 -8 18
2 22 23 8z m-353 -31 c3 -5 -7 -31 -22 -57 -31 -53 -41 -41 -23 26 10 39 31
53 45 31z m818 -20 c3 -11 1 -18 -4 -14 -5 3 -9 12 -9 20 0 20 7 17 13 -6z
m-2500 -42 c2 -7 -11 -58 -29 -113 -18 -55 -33 -91 -33 -80 -1 27 18 165 25
187 6 21 30 24 37 6z m1762 -110 c-4 -35 -8 -75 -9 -90 -1 -33 -7 -27 -57 53
-36 60 -38 78 -5 66 8 -3 19 -23 26 -44 21 -64 30 -60 23 10 -5 60 -4 67 12
67 16 0 17 -6 10 -62z m-271 15 c-13 -53 -23 -60 -24 -15 0 31 4 42 15 42 12
0 14 -7 9 -27z m-764 -25 c8 -11 25 -30 37 -43 33 -32 54 -90 57 -155 4 -67
19 -100 47 -100 20 0 23 -4 33 -52 7 -32 26 -38 26 -9 0 13 9 21 30 26 47 10
68 -2 76 -43 l7 -37 18 40 c24 54 23 67 -7 89 -22 15 -28 16 -35 5 -5 -8 -9
-20 -9 -26 0 -27 -19 -11 -35 29 -9 23 -26 55 -37 72 -12 16 -23 42 -25 58 -3
27 -1 29 29 26 27 -2 34 -9 42 -35 7 -25 14 -33 32 -33 17 0 24 6 24 20 0 11
7 20 15 20 19 0 19 -15 -1 -50 -18 -29 -13 -80 7 -80 6 0 8 4 4 10 -10 17 27
138 41 133 23 -9 25 -39 5 -85 -13 -32 -17 -55 -12 -79 6 -32 10 -34 47 -35
22 0 46 -4 54 -9 10 -6 11 0 7 26 -4 19 -9 64 -13 102 -6 64 -6 67 15 67 20 0
21 -3 16 -52 -5 -41 -4 -49 5 -35 6 9 20 17 30 17 24 0 24 4 4 -54 -9 -26 -15
-49 -13 -51 2 -2 18 -5 34 -7 l30 -3 2 58 c1 32 6 79 13 105 6 26 9 63 8 82
-2 26 1 35 15 38 15 3 17 -2 11 -37 -6 -39 -5 -41 20 -41 l26 0 -30 -60 c-17
-33 -28 -60 -25 -60 2 0 0 -12 -6 -27 -6 -16 -10 -83 -10 -154 3 -167 -19
-217 -99 -239 -54 -15 -98 -2 -140 40 l-37 37 -27 -33 c-62 -78 -186 -62 -230
30 -10 21 -16 60 -16 104 0 39 -3 72 -8 74 -10 4 -72 99 -72 110 0 4 7 8 15 8
8 0 16 7 16 15 3 31 4 35 12 35 4 0 14 0 22 0 13 0 14 -13 11 -72 -3 -40 -2
-61 0 -45 6 32 27 35 47 7 14 -20 15 -20 19 10 5 31 -3 45 -54 101 -10 10 -18
21 -18 24 0 2 -18 32 -40 66 -22 34 -40 70 -40 79 0 10 -7 34 -15 53 -8 20
-15 41 -15 47 0 17 43 1 60 -22z m1761 15 c5 -70 5 -83 -2 -76 -14 14 -22 83
-10 83 6 0 11 -3 12 -7z m-523 -126 c3 -103 13 -135 26 -82 4 17 13 25 27 25
19 0 20 4 14 40 -7 40 -6 40 25 40 29 0 31 -2 30 -37 -1 -21 6 -69 15 -108 22
-95 14 -113 -14 -35 -13 36 -27 68 -31 72 -3 5 -21 -20 -38 -55 -33 -64 -34
-97 -5 -97 11 0 14 -6 9 -22 -3 -13 -6 -52 -7 -88 -1 -79 -12 -59 -30 53 -10
63 -14 75 -25 66 -17 -14 -17 -9 -3 27 9 26 2 84 -17 144 -9 25 -34 -18 -34
-56 0 -18 -3 -40 -6 -49 -5 -13 -9 -12 -19 8 -7 13 -15 37 -18 53 -3 16 -9 40
-13 53 -6 21 -4 23 10 18 25 -10 55 30 56 71 0 40 17 75 33 69 8 -2 13 -39 15
-110z m-863 53 c-33 -34 -40 -34 -26 4 7 17 18 26 33 26 21 0 21 -1 -7 -30z
m477 -10 c6 0 8 -11 4 -25 -3 -14 -9 -36 -12 -49 -4 -18 -1 -26 15 -31 17 -5
19 -10 11 -30 -6 -15 -6 -34 -1 -47 8 -21 10 -21 16 -5 6 13 10 15 15 7 5 -8
11 0 18 19 9 26 16 31 41 31 17 0 31 -3 31 -7 0 -5 -16 -34 -35 -66 -19 -32
-35 -71 -35 -88 0 -39 -20 -121 -32 -134 -6 -6 -8 12 -5 50 4 62 -18 195 -33
195 -5 0 -10 8 -13 18 -2 9 -4 3 -4 -15 0 -19 -14 -52 -35 -85 -51 -77 -60
-97 -53 -117 7 -22 -14 -73 -26 -65 -22 13 -1 115 43 216 15 34 19 57 14 87
-5 31 -3 41 8 41 14 0 26 41 26 87 0 19 4 24 16 19 9 -3 20 -6 26 -6z m868
-116 c0 -27 -14 -25 -30 7 -9 16 -7 19 10 19 15 0 20 -7 20 -26z m-73 -31 l17
-38 5 35 6 34 18 -27 c11 -17 15 -36 11 -52 -5 -19 -2 -25 11 -25 16 0 94 -76
95 -93 0 -5 -27 13 -60 38 -66 51 -76 48 -68 -20 2 -19 3 -35 1 -35 -5 0 -50
94 -58 120 -4 14 -16 37 -26 52 -26 35 -24 48 7 48 19 0 29 -8 41 -37z m-2727
-19 c0 -11 -52 -95 -57 -91 -6 7 40 97 49 97 4 0 8 -3 8 -6z m177 -38 c-4 -25
-3 -46 1 -48 10 -4 51 -178 42 -178 -8 0 23 -111 37 -133 8 -14 21 18 23 58
l1 30 15 -27 c8 -16 21 -28 30 -28 12 0 13 -8 9 -34 -9 -46 1 -73 32 -88 19
-10 30 -29 44 -72 20 -65 39 -94 39 -58 0 16 6 22 21 22 21 0 22 3 17 95 -4
73 -2 99 10 116 27 39 34 7 22 -102 -6 -57 -14 -119 -17 -138 -5 -29 -3 -33
11 -28 9 4 16 5 16 4 0 -14 -39 -178 -44 -186 -4 -6 -11 -9 -16 -6 -8 5 -15
-22 -26 -115 -13 -103 -23 -21 -17 140 6 153 5 156 -21 207 -26 53 -81 123
-96 123 -33 0 0 -102 63 -195 12 -18 -3 -8 -39 27 -54 52 -60 56 -72 40 -10
-14 -11 -12 -6 18 4 28 1 40 -15 54 l-21 19 0 -57 c0 -39 4 -58 14 -62 7 -3
17 -23 20 -46 6 -34 9 -38 21 -28 20 17 19 8 -10 -80 -30 -90 -30 -93 -4 -85
19 6 17 -1 -20 -68 -34 -62 -41 -84 -41 -130 0 -64 7 -87 25 -87 7 0 16 -12
20 -27 3 -15 15 -45 26 -67 10 -22 19 -49 19 -60 1 -12 7 -32 15 -46 14 -25
14 -25 15 15 l0 40 21 -45 c11 -24 24 -47 28 -50 4 -3 11 -26 14 -52 4 -26 20
-75 37 -108 37 -74 38 -87 3 -35 l-28 40 -5 -40 c-5 -39 -5 -39 -24 37 -13 50
-32 94 -57 130 -21 29 -50 77 -65 106 -30 58 -37 55 -49 -17 -9 -52 -19 -40
-30 33 -5 37 -4 46 6 41 9 -6 10 -1 4 21 -7 28 -23 129 -45 278 -6 38 -8 71
-6 73 6 6 -26 90 -58 152 -21 41 -25 56 -16 65 8 7 14 7 16 1 13 -31 51 -89
62 -93 8 -2 12 8 13 30 1 18 3 25 6 15 3 -12 10 -16 24 -12 18 6 19 0 19 -102
0 -59 3 -119 7 -132 6 -22 8 -20 20 20 7 24 16 83 19 131 5 74 3 93 -16 134
-13 30 -22 77 -25 124 -3 41 -12 107 -20 145 -17 82 -19 125 -5 125 6 0 10 7
10 15 0 8 7 15 15 15 19 0 19 -2 -6 67 -25 68 -39 87 -39 53 0 -15 -4 -20 -9
-14 -8 7 -17 126 -12 157 1 4 13 7 27 7 26 0 27 -2 21 -44z m2210 -33 c-3 -10
-5 -4 -5 12 0 17 2 24 5 18 2 -7 2 -21 0 -30z m177 5 c7 -47 14 -175 9 -160
-9 23 -23 12 -23 -19 0 -58 -17 -19 -23 53 -4 40 -10 92 -13 116 -6 40 -6 42
19 42 22 0 27 -5 31 -32z m-334 -5 c-1 -10 -9 -34 -20 -53 l-19 -35 -1 37 c0
20 3 43 6 52 8 22 34 20 34 -1z m-90 -38 c0 -13 -52 -107 -56 -102 -3 2 -2 28
2 56 6 45 9 51 30 51 13 0 24 -2 24 -5z m335 -62 c18 -147 59 -303 80 -303 17
0 19 -9 6 -43 -8 -20 -6 -26 8 -30 13 -3 21 -22 30 -67 7 -34 14 -69 17 -79 2
-9 -10 13 -27 49 -17 36 -37 72 -44 80 -15 17 -81 173 -101 240 -8 25 -14 59
-14 77 0 17 -4 42 -9 55 -4 13 -11 35 -15 51 -6 25 -4 27 28 27 34 0 34 0 41
-57z m-163 -85 c-8 -31 -9 -28 -16 36 -5 52 -4 71 6 77 16 11 23 -64 10 -113z
m645 96 c14 -14 23 -28 20 -31 -7 -6 -66 38 -66 50 -2 15 21 6 46 -19z m-2284
-21 c42 -68 41 -66 20 -55 -24 13 -83 73 -83 84 0 4 9 8 20 8 12 0 29 -15 43
-37z m-695 -42 c-13 -15 -25 -27 -26 -25 -6 4 32 53 41 54 5 0 -2 -13 -15 -29z
m2765 -86 c0 -11 0 -38 -2 -60 l-3 -40 -13 30 c-22 50 -29 124 -14 152 14 26
14 26 23 -18 4 -24 9 -53 9 -64z m-693 46 c-11 -23 -22 -41 -24 -41 -9 0 14
74 25 81 22 13 22 3 -1 -40z m69 -8 c-1 -66 -17 -104 -18 -43 -1 25 -4 55 -7
68 -5 16 -2 22 10 22 13 0 16 -10 15 -47z m-2100 -5 c-8 -14 -14 -18 -17 -10
-4 13 17 46 25 38 3 -2 -1 -15 -8 -28z m1061 6 c0 -28 -15 -25 -23 6 -3 13 0
20 9 20 8 0 14 -10 14 -26z m-1012 -37 c16 0 15 -3 -4 -37 -15 -25 -20 -27
-47 -19 -42 12 -43 16 -17 44 15 16 30 23 40 19 8 -3 21 -7 28 -7z m2786 -22
c-4 -8 -10 -12 -15 -9 -14 8 -10 24 6 24 9 0 12 -6 9 -15z m-420 -47 c3 -13
12 -44 20 -70 8 -27 13 -48 11 -48 -4 0 -75 126 -75 134 0 18 39 3 44 -16z
m404 -8 c1 -14 -6 -59 -17 -100 l-18 -75 -8 92 c-4 50 -4 97 0 103 12 19 40 6
43 -20z m-2725 -78 c22 -56 23 -63 7 -42 -10 14 -31 46 -45 72 -23 42 -23 46
-6 41 12 -3 28 -29 44 -71z m2177 -106 c0 -14 -4 -28 -10 -31 -6 -4 -10 7 -10
24 0 17 5 31 10 31 6 0 10 -11 10 -24z m-2290 -3 c0 -5 -4 -14 -9 -21 -6 -10
-10 -9 -14 7 -3 14 0 21 9 21 8 0 14 -3 14 -7z m646 -30 c4 -21 13 -47 20 -58
14 -22 40 -143 32 -151 -3 -2 -22 16 -43 42 -30 36 -40 61 -51 117 -18 91 -18
87 11 87 20 0 25 -6 31 -37z m1607 -12 c5 -43 -12 -153 -26 -167 -3 -3 -11 20
-17 52 -9 43 -9 59 -1 62 6 2 11 23 11 46 0 41 5 56 20 56 4 0 10 -22 13 -49z
m256 -3 c-11 -29 -23 -55 -25 -57 -2 -2 -4 21 -4 52 0 54 1 57 25 57 l25 0
-21 -52z m-159 -33 c0 -25 4 -45 9 -45 5 0 13 -17 18 -37 10 -42 39 -56 58
-29 19 25 42 -52 25 -83 -22 -42 0 -147 56 -266 33 -70 66 -166 60 -173 -2 -1
-23 29 -47 68 -24 38 -47 70 -51 70 -5 0 -8 -28 -9 -62 l-1 -63 -15 90 c-8 50
-18 113 -22 140 -8 53 -8 53 -34 -15 -3 -8 -6 22 -6 67 -1 51 -7 99 -18 125
-21 56 -35 71 -27 30 4 -18 4 -32 1 -32 -8 0 -24 58 -42 150 -21 106 -20 110
15 110 29 0 30 -2 30 -45z m308 3 c-25 -105 -26 -106 -27 -44 -1 45 3 62 17
72 9 7 18 14 18 14 1 0 -3 -19 -8 -42z m-998 -64 c41 -9 98 -27 125 -40 l50
-23 -380 0 c-337 0 -377 1 -355 14 36 21 145 54 215 65 83 12 255 5 345 -16z
m-852 -16 c7 -7 12 -18 12 -25 0 -6 11 -28 24 -48 22 -32 70 -155 63 -161 -2
-2 -12 13 -22 34 -11 20 -31 55 -44 77 -28 45 -61 112 -61 126 0 13 14 11 28
-3z m1788 -22 c24 -38 64 -159 48 -145 -11 9 -14 5 -14 -22 0 -47 -16 -26 -34
44 -8 32 -24 73 -36 91 -24 41 -25 43 -2 49 9 3 18 5 19 6 2 0 10 -10 19 -23z
m-492 -67 c4 -28 5 -53 3 -56 -5 -4 -47 82 -47 97 0 5 8 10 19 10 15 0 20 -10
25 -51z m-1470 -16 c3 -21 6 -57 6 -80 0 -25 8 -56 20 -75 25 -41 26 -61 1
-29 l-18 24 -5 -71 c-4 -52 1 -98 17 -174 13 -57 22 -104 21 -105 -2 -2 -9 9
-16 25 -8 15 -22 38 -31 52 -40 61 -81 152 -84 190 -3 22 -7 45 -10 50 -4 6
-1 10 4 10 6 0 11 6 11 14 0 9 7 12 20 9 32 -8 26 45 -10 93 -34 45 -36 54
-14 54 11 0 14 5 10 16 -9 24 2 34 38 34 31 0 34 -3 40 -37z m2056 -25 c0 -9
5 -18 11 -20 7 -2 7 -24 -1 -73 -12 -72 -7 -135 10 -135 12 0 13 -40 2 -58 -9
-14 -33 30 -63 117 -23 66 -23 61 1 61 18 0 20 7 20 78 0 53 3 72 10 62 5 -8
10 -22 10 -32z m-1860 -33 c9 -33 23 -73 32 -90 21 -41 34 -100 19 -91 -22 14
-73 98 -67 112 5 14 2 25 -29 97 -16 38 -16 38 6 35 18 -2 25 -15 39 -63z
m1170 -7 c0 -13 3 -34 6 -48 9 -36 -10 -14 -30 33 -14 35 -14 37 5 37 13 0 19
-7 19 -22z m209 -38 c27 -74 47 -91 37 -32 -5 34 -3 42 9 42 8 0 15 9 15 20 0
11 5 20 10 20 13 0 12 -51 -3 -121 l-12 -57 -30 39 c-16 21 -32 39 -36 39 -10
0 -55 62 -63 88 -7 19 -4 22 22 22 27 0 31 -5 51 -60z m341 -2 c6 -24 15 -56
20 -72 6 -16 10 -32 10 -35 0 -10 -50 76 -66 114 -14 33 -13 35 5 35 15 0 23
-11 31 -42z m-1534 -7 c-15 -49 -16 -70 -6 -95 18 -49 3 -41 -35 18 -51 80
-53 88 -21 80 18 -4 27 -2 32 9 8 21 36 9 30 -12z m-576 -125 c11 -44 30 -106
40 -137 25 -71 25 -84 -1 -39 l-20 35 5 -45 c6 -43 5 -44 -9 -20 -20 35 -18
13 5 -55 35 -102 21 -93 -34 22 -67 139 -72 153 -52 153 19 0 19 1 5 37 -6 15
-13 61 -15 100 l-3 73 29 -21 c23 -17 33 -38 50 -103z m1396 58 c-10 -78 -25
-88 -26 -16 0 51 3 62 16 62 14 0 16 -8 10 -46z m-101 -20 c3 -25 5 -48 2 -50
-6 -7 -35 40 -43 70 -5 21 -3 26 14 26 16 0 21 -9 27 -46z m454 4 c0 -24 -4
-52 -8 -63 -6 -15 -9 -11 -14 20 -11 63 -8 85 8 85 11 0 15 -11 14 -42z m-960
10 c0 -25 -17 -71 -18 -52 -1 6 -4 26 -7 43 -5 24 -3 31 10 31 10 0 16 -8 15
-22z m1087 -45 c-10 -85 -26 -91 -26 -10 0 55 3 67 16 67 14 0 16 -8 10 -57z
m-961 -35 l-8 -43 -13 35 c-17 47 -17 48 4 52 24 6 25 4 17 -44z m-644 20 c0
-7 2 -24 4 -38 6 -48 8 -170 3 -175 -9 -9 -39 99 -45 163 -6 59 -5 62 16 62
11 0 21 -6 22 -12z m404 -7 c3 -5 7 -47 10 -93 l4 -83 -31 64 c-21 43 -27 66
-20 69 7 2 12 15 12 28 0 24 14 32 25 15z m550 -31 c-8 -16 -15 -36 -15 -45 0
-9 -4 -14 -8 -11 -4 2 -6 23 -4 45 3 32 8 41 23 41 18 0 19 -2 4 -30z m420 -7
c3 -21 8 -54 11 -73 9 -63 14 -71 33 -60 16 8 20 1 36 -50 10 -33 22 -57 26
-54 12 7 11 -10 -6 -86 -8 -36 -15 -81 -15 -100 -1 -29 -3 -31 -10 -15 -13 29
-12 123 1 127 10 3 -28 118 -52 158 -27 44 -61 124 -66 155 -5 31 -3 35 15 35
17 0 22 -8 27 -37z m-1253 -20 c4 -46 3 -61 -6 -52 -10 10 -18 99 -8 99 5 0
12 -21 14 -47z m400 5 c12 -10 17 -36 20 -95 3 -45 1 -80 -4 -77 -4 3 -8 -6
-8 -20 0 -14 5 -28 10 -31 14 -9 12 -25 -2 -22 -7 1 -12 -6 -10 -15 2 -10 -2
-18 -7 -18 -10 0 -15 13 -27 70 -3 19 -19 59 -34 87 -17 35 -25 63 -22 83 6
39 18 38 37 -2 13 -30 14 -31 13 -8 -3 62 4 71 34 48z m218 3 c0 -5 -4 -21
-10 -35 -9 -24 -7 -26 15 -26 24 0 25 -2 25 -70 0 -38 -2 -70 -4 -70 -3 0 -12
24 -21 53 -10 28 -23 61 -30 72 -7 11 -16 35 -19 53 -7 30 -6 32 18 32 14 0
26 -4 26 -9z m422 3 c8 -7 -13 -74 -24 -74 -4 0 -8 18 -8 40 0 37 14 52 32 34z
m788 -13 c0 -30 11 -51 26 -51 10 0 14 -14 14 -49 0 -27 5 -51 10 -53 11 -3
73 -164 85 -219 6 -30 2 -26 -34 31 -23 36 -49 80 -58 98 -9 17 -22 32 -29 32
-13 0 -24 53 -24 116 0 28 -6 47 -20 59 -24 22 -26 35 -5 35 8 0 15 5 15 10 0
6 5 10 10 10 6 0 10 -9 10 -19z m-676 -47 c3 -26 6 -69 6 -95 0 -27 5 -49 10
-49 6 0 10 -26 10 -59 0 -41 4 -60 14 -64 10 -4 16 -30 21 -84 8 -103 13 -123
29 -123 7 0 19 -12 26 -27 26 -58 40 -93 36 -93 -3 0 -25 28 -49 63 -34 48
-47 78 -58 132 -7 39 -15 61 -17 49 -1 -11 1 -39 6 -62 14 -59 -2 -61 -26 -4
-21 48 -22 48 -38 -6 -2 -7 3 -41 10 -75 8 -34 14 -73 14 -87 0 -14 5 -45 11
-69 17 -61 8 -61 -22 1 -45 91 -86 207 -75 210 6 2 4 18 -5 41 -17 39 -16 41
26 51 26 6 27 9 27 70 0 45 4 65 14 69 9 4 12 15 8 32 -3 16 0 30 8 35 10 6
10 21 -4 74 -20 80 -21 116 -2 116 8 0 16 -17 20 -46z m805 -16 c24 -70 11
-64 -34 15 -26 45 -26 47 -7 47 16 0 25 -14 41 -62z m-449 32 c0 -4 8 -10 18
-13 9 -2 30 -28 46 -58 l29 -53 -29 22 c-53 38 -116 110 -102 114 16 6 38 -1
38 -12z m-810 -69 c0 -48 5 -74 15 -84 8 -9 23 -37 32 -63 14 -36 25 -49 45
-55 33 -9 53 -28 107 -101 26 -36 49 -58 61 -58 14 0 22 -11 29 -37 16 -56 13
-61 -11 -26 -13 17 -50 53 -83 80 -33 27 -75 66 -92 87 -18 20 -33 35 -33 33
0 -3 7 -24 15 -47 16 -46 19 -68 8 -56 -4 3 -13 -4 -20 -16 -12 -22 -13 -20
-11 18 1 27 -6 52 -20 75 -44 71 -63 111 -58 125 3 8 -1 43 -9 77 -21 88 -20
117 5 117 18 0 20 -7 20 -69z m250 32 c0 -49 17 -108 36 -128 9 -8 11 -15 6
-15 -5 0 -16 8 -25 18 -41 46 -64 162 -32 162 11 0 15 -11 15 -37z m-721 -71
c21 -3 22 -6 16 -65 -5 -46 -2 -72 9 -99 23 -53 4 -47 -32 10 -24 37 -82 178
-82 198 0 10 29 3 33 -8 3 -7 6 3 7 22 l2 35 12 -45 c9 -35 17 -46 35 -48z
m-167 1 c9 -43 19 -87 24 -97 5 -13 4 -17 -4 -12 -11 6 -72 156 -72 176 0 5 8
10 18 10 15 0 22 -15 34 -77z m508 67 c0 -15 -39 -152 -45 -158 -7 -7 -6 85 1
131 5 27 11 37 25 37 11 0 19 -5 19 -10z m-584 -69 c-8 -74 1 -101 58 -185 23
-34 23 -37 10 -98 -7 -35 -14 -76 -15 -93 l-1 -30 -8 35 c-11 44 -4 141 10
150 8 5 -39 73 -70 100 -3 3 -20 28 -37 56 -29 48 -30 51 -12 62 13 8 19 9 19
1 0 -5 5 -7 11 -3 6 3 9 22 7 40 -3 28 -1 34 15 34 18 0 19 -5 13 -69z m894
-6 c22 -43 36 -61 41 -53 10 16 2 25 91 -111 10 -14 32 -38 50 -53 22 -20 27
-28 16 -28 -9 0 -20 5 -23 10 -16 25 -24 4 -27 -67 l-3 -78 -24 83 c-21 71
-22 85 -10 93 8 5 9 9 3 9 -18 0 -194 231 -194 254 0 3 11 6 24 6 18 0 30 -13
56 -65z m1265 25 c-3 -5 -10 -10 -16 -10 -5 0 -9 5 -9 10 0 6 7 10 16 10 8 0
12 -4 9 -10z m-498 -42 c-3 -7 -5 -2 -5 12 0 14 2 19 5 13 2 -7 2 -19 0 -25z
m-1862 -45 l-8 -48 -9 43 c-11 50 -4 82 14 64 7 -7 8 -27 3 -59z m1663 51 c20
-6 22 -12 22 -70 0 -43 8 -84 25 -131 21 -55 39 -130 29 -120 -2 1 -32 42 -68
91 -63 86 -78 116 -56 116 6 0 10 27 10 60 0 33 3 60 8 60 4 0 17 -3 30 -6z
m-2122 -74 c8 0 14 -7 14 -16 0 -26 43 -13 50 15 5 21 7 22 18 8 16 -19 25
-182 12 -212 -8 -18 -9 -18 -10 5 0 14 -19 52 -41 85 l-40 60 3 -130 c1 -71
-3 -152 -9 -180 -11 -49 -11 -49 -13 45 -1 52 -5 119 -9 147 -4 32 -4 54 2 56
11 3 15 93 6 117 -3 8 -4 12 -2 8 3 -5 11 -8 19 -8z m1184 -15 c0 -5 -53 -108
-77 -149 -7 -12 -13 -34 -13 -51 0 -16 -5 -37 -10 -45 -7 -10 -10 18 -10 88 0
81 3 102 14 102 8 0 17 14 21 30 6 26 11 30 41 30 19 0 34 -2 34 -5z m1045
-32 c3 -21 8 -51 10 -66 7 -42 -11 -24 -29 30 -20 58 -20 73 -1 73 9 0 16 -14
20 -37z m-1735 -12 c0 -15 3 -50 6 -77 9 -68 -4 -50 -26 35 -18 69 -18 71 1
71 14 0 19 -7 19 -29z m-58 -82 c-2 -50 -5 -89 -7 -87 -8 8 -26 150 -21 164 3
8 11 14 18 14 10 0 12 -22 10 -91z m452 57 c3 -13 14 -26 25 -29 14 -3 21 -17
26 -51 5 -29 14 -50 25 -56 18 -9 48 -106 37 -117 -3 -2 -16 15 -28 39 -20 36
-24 40 -27 21 -2 -12 1 -46 6 -75 7 -38 6 -76 -3 -137 -13 -81 -24 -114 -26
-75 0 17 -2 17 -11 -3 -14 -30 -26 -29 -38 3 -13 34 -13 34 10 34 18 0 19 3
10 20 -9 16 -8 20 5 20 11 0 15 11 15 41 0 26 6 46 16 53 14 11 13 20 -6 94
-12 45 -22 90 -23 101 -1 11 -6 22 -13 25 -6 2 -15 22 -18 43 -4 21 -9 46 -12
56 -3 11 0 17 9 17 8 0 18 -11 21 -24z m-520 -27 c3 -17 6 -55 5 -83 0 -44 -2
-48 -10 -26 -6 14 -16 51 -24 83 -12 53 -12 57 5 57 12 0 20 -10 24 -31z m262
-14 c-5 -32 -4 -45 5 -45 12 0 9 -28 -11 -135 -7 -40 -8 -40 -9 15 -1 57 -20
109 -22 60 0 -23 -1 -23 -9 -5 -14 32 -11 72 5 79 9 3 15 19 15 41 0 26 4 35
16 35 14 0 15 -7 10 -45z m1824 -37 c0 -39 -2 -69 -5 -66 -3 3 -14 35 -24 71
-18 61 -18 66 -3 70 29 6 32 -2 32 -75z m-1086 -5 c-15 -38 -30 -77 -34 -88
-9 -20 -9 -20 -9 1 -1 12 2 42 5 68 5 35 11 46 24 46 10 0 20 9 23 20 3 11 8
20 11 20 3 0 -6 -30 -20 -67z m-319 -30 c3 -21 10 -60 14 -88 5 -27 8 -51 6
-53 -5 -5 -46 110 -52 146 -4 25 -2 32 10 32 11 0 18 -12 22 -37z m-1315 20
c0 -3 -25 -32 -55 -64 -63 -66 -70 -61 -20 16 23 37 41 55 55 55 11 0 20 -3
20 -7z m2817 -30 c10 -16 21 -30 25 -33 6 -5 42 -55 63 -89 5 -8 -6 -5 -23 8
-38 27 -41 17 -7 -33 33 -49 17 -45 -39 9 -48 46 -57 65 -30 65 12 0 8 10 -15
39 -17 21 -31 44 -31 50 0 22 40 10 57 -16z m-391 -35 c9 -29 23 -66 31 -83
25 -50 -10 -10 -51 59 -41 69 -43 76 -17 76 15 0 24 -13 37 -52z m-1280 26
c-3 -9 -6 -43 -7 -77 l-1 -62 -13 55 c-20 80 -19 100 6 100 15 0 19 -4 15 -16z
m1428 -49 c11 -33 25 -64 33 -68 7 -4 13 -13 13 -20 0 -7 16 -38 35 -69 39
-66 34 -75 -13 -22 -25 28 -32 32 -32 17 -1 -14 -4 -12 -16 10 -8 15 -17 27
-20 27 -3 0 -3 -28 0 -62 l7 -63 -21 39 c-25 49 -36 106 -21 106 17 0 14 15
-19 85 -16 35 -30 69 -30 75 0 7 14 10 33 8 30 -3 33 -7 51 -63z m391 33 c-4
-17 -13 -45 -21 -62 -13 -30 -13 -30 -14 32 0 56 2 62 21 62 18 0 20 -4 14
-32z m-685 -50 c7 -24 21 -61 33 -83 18 -36 18 -38 2 -25 -19 16 -77 103 -88
133 -5 13 -1 17 17 17 18 0 25 -8 36 -42z m391 -36 c6 -31 13 -63 16 -72 2 -8
-12 16 -32 53 -35 67 -38 91 -10 81 8 -3 19 -31 26 -62z m-996 12 c-8 -46 -24
-88 -31 -82 -2 3 -2 31 2 62 5 40 11 56 21 56 12 0 14 -8 8 -36z m100 -21 c30
-106 29 -101 11 -76 -21 28 -55 104 -56 121 0 6 6 12 14 12 9 0 21 -22 31 -57z
m-740 -46 c4 -13 5 -50 3 -82 l-3 -60 -18 40 c-10 22 -21 59 -24 82 -5 39 -4
43 15 43 14 0 24 -8 27 -23z m2004 -22 c6 -25 15 -45 20 -45 5 0 8 -34 8 -74
-2 -85 -12 -86 -28 -2 -5 31 -18 76 -28 99 -19 44 -18 67 4 67 7 0 18 -20 24
-45z m-2826 28 c3 -5 7 -42 10 -83 5 -73 5 -74 -9 -41 -20 45 -30 131 -16 131
6 0 13 -3 15 -7z m2263 -109 c-3 -26 -6 -55 -6 -66 0 -11 -4 -16 -10 -13 -11
7 -14 108 -3 118 18 18 25 3 19 -39z m-106 7 c0 -10 6 -21 14 -24 14 -6 36
-65 36 -96 0 -21 -12 -5 -49 61 -35 64 -38 78 -16 78 8 0 15 -9 15 -19z m506
-108 c-1 -2 -16 15 -31 37 -24 34 -26 42 -14 56 11 14 15 10 31 -37 10 -29 16
-54 14 -56z m383 55 c0 -18 -3 -26 -6 -18 -3 8 -10 23 -15 33 -6 12 -5 17 7
17 10 0 15 -10 14 -32z m-3380 0 c0 -7 -9 -33 -20 -58 -11 -25 -17 -34 -15
-20 3 14 6 40 6 58 0 22 5 32 15 32 8 0 15 -6 14 -12z m2451 -23 c0 -8 -4 -15
-10 -15 -5 0 -10 7 -10 15 0 8 5 15 10 15 6 0 10 -7 10 -15z m220 -20 c21 -25
4 -28 -37 -6 l-38 20 31 1 c17 0 37 -7 44 -15z m695 -27 l40 -41 -50 28 c-27
15 -57 34 -65 41 -12 12 -11 14 11 14 16 0 39 -14 64 -42z m-595 -18 c0 -5 -4
-10 -9 -10 -6 0 -13 5 -16 10 -3 6 1 10 9 10 9 0 16 -4 16 -10z m-466 -6 c16
-6 23 -34 8 -34 -10 0 -32 22 -32 32 0 10 3 10 24 2z m52 -51 c-10 -10 -19 5
-10 18 6 11 8 11 12 0 2 -7 1 -15 -2 -18z m-396 8 c0 -5 -7 -14 -15 -21 -16
-14 -18 -10 -9 14 6 17 24 22 24 7z"/>
<path d="M2910 4214 c0 -14 4 -23 10 -19 6 3 10 15 10 26 0 10 -4 19 -10 19
-5 0 -10 -12 -10 -26z"/>
<path d="M3451 3430 c0 -14 5 -47 12 -75 12 -45 14 -47 20 -24 4 15 -1 44 -13
75 -14 36 -19 43 -19 24z"/>
<path d="M1900 2623 c0 -47 11 -73 30 -73 10 0 21 -6 23 -12 3 -7 6 -5 6 6 1
22 -39 106 -51 106 -4 0 -8 -12 -8 -27z"/>
<path d="M1915 2461 c3 -24 10 -51 15 -60 13 -22 4 48 -10 80 -9 20 -10 16 -5
-20z"/>
<path d="M2664 2187 c-11 -24 -14 -44 -9 -63 7 -27 9 -24 21 30 17 69 12 83
-12 33z"/>
<path d="M2341 2120 c0 -19 4 -42 9 -50 8 -12 10 -10 9 10 -1 14 -5 36 -9 50
-7 23 -8 22 -9 -10z"/>
<path d="M3532 1350 c0 -14 2 -19 5 -12 2 6 2 18 0 25 -3 6 -5 1 -5 -13z"/>
<path d="M3091 834 c0 -11 3 -14 6 -6 3 7 2 16 -1 19 -3 4 -6 -2 -5 -13z"/>
<path d="M3052 565 c0 -16 2 -22 5 -12 2 9 2 23 0 30 -3 6 -5 -1 -5 -18z"/>
<path d="M1826 4465 c25 -36 44 -68 42 -70 -3 -3 -26 2 -53 10 l-48 14 53 -54
c30 -30 60 -55 67 -55 8 0 13 14 13 39 0 23 7 46 16 55 8 9 13 20 9 26 -7 12
-130 100 -139 100 -4 0 14 -29 40 -65z"/>
<path d="M2093 4094 c23 -185 40 -264 57 -264 6 0 10 9 10 20 0 11 7 20 15 20
8 0 13 -6 11 -12 -18 -59 -11 -64 13 -10 18 37 36 62 45 62 24 0 20 11 -29 86
-25 37 -45 72 -45 76 0 4 -5 8 -11 8 -6 0 -9 -9 -6 -20 9 -35 -3 -22 -24 25
-29 65 -43 69 -36 9z"/>
<path d="M2621 3894 c0 -11 3 -14 6 -6 3 7 2 16 -1 19 -3 4 -6 -2 -5 -13z"/>
<path d="M2435 3740 c-18 -3 -34 -15 -42 -30 -13 -25 -13 -25 -13 -2 0 20 -3
21 -20 12 -14 -7 -20 -21 -20 -44 l0 -33 63 22 c59 22 73 36 65 68 -2 8 -13
11 -33 7z"/>
<path d="M2500 3721 l0 -28 83 -8 c45 -4 117 -7 159 -8 l77 -2 -54 27 c-72 37
-145 53 -157 36 -6 -10 -8 -10 -8 0 0 8 -17 12 -50 12 -48 0 -50 -1 -50 -29z"/>
<path d="M2250 3656 c-70 -51 -119 -111 -159 -195 -36 -75 -36 -77 -36 -206 0
-115 3 -136 24 -185 75 -175 218 -286 396 -311 265 -37 506 132 559 393 20 94
20 114 1 203 -13 60 -58 170 -75 180 -12 7 -2 -124 15 -185 54 -196 -66 -425
-265 -506 -89 -37 -225 -38 -315 -4 -132 50 -230 153 -270 286 -19 64 -19 182
0 249 21 72 82 163 144 215 39 33 51 50 51 72 0 36 -14 35 -70 -6z"/>
<path d="M2498 3550 c-234 -40 -332 -321 -173 -498 113 -125 307 -131 428 -14
68 65 105 165 93 247 l-7 45 -56 0 c-105 0 -173 66 -173 169 0 44 -3 51 -19
51 -11 0 -25 2 -33 4 -7 2 -34 0 -60 -4z m165 -231 c27 -12 47 -47 47 -80 0
-30 -53 -79 -85 -79 -35 0 -85 50 -85 85 0 32 49 85 79 85 11 0 31 -5 44 -11z"/>
<path d="M3998 3533 c7 -3 16 -2 19 1 4 3 -2 6 -13 5 -11 0 -14 -3 -6 -6z"/>
<path d="M3166 3484 c-4 -9 -4 -19 -1 -22 2 -3 7 3 11 12 4 9 4 19 1 22 -2 3
-7 -3 -11 -12z"/>
<path d="M4010 3456 c0 -23 42 -94 62 -103 13 -6 51 -35 83 -64 59 -53 60 -50
8 26 -34 50 -153 160 -153 141z"/>
<path d="M1851 3364 c0 -11 3 -14 6 -6 3 7 2 16 -1 19 -3 4 -6 -2 -5 -13z"/>
<path d="M988 3281 c-50 -32 -75 -60 -42 -47 33 13 74 19 74 11 0 -4 -19 -25
-42 -46 l-43 -38 54 19 c74 26 77 31 60 85 l-15 45 -46 -29z"/>
<path d="M4055 3290 c3 -5 11 -10 16 -10 6 0 7 5 4 10 -3 6 -11 10 -16 10 -6
0 -7 -4 -4 -10z"/>
<path d="M1010 2795 c-7 -9 -8 -15 -2 -15 5 0 12 7 16 15 3 8 4 15 2 15 -2 0
-9 -7 -16 -15z"/>
<path d="M980 2278 c-28 -29 -43 -58 -32 -58 5 0 16 8 24 18 18 20 41 62 34
62 -3 0 -15 -10 -26 -22z"/>
<path d="M950 2203 c-8 -2 -21 -7 -29 -9 -18 -6 -10 -13 28 -24 29 -8 31 -7
31 16 0 24 -3 26 -30 17z"/>
<path d="M934 1785 c-16 -12 -16 -14 -3 -15 9 0 22 7 29 15 16 19 0 19 -26 0z"/>
<path d="M4150 1676 c0 -3 5 -16 11 -30 8 -17 25 -28 56 -36 25 -6 47 -9 49
-8 2 2 -24 20 -56 41 -33 20 -60 35 -60 33z"/>
<path d="M4000 1635 c0 -8 9 -19 19 -24 10 -6 31 -31 46 -57 30 -50 43 -52 26
-3 -10 29 -9 31 10 26 16 -4 18 -3 8 9 -6 8 -15 14 -20 14 -5 0 -27 11 -49 25
-31 19 -40 22 -40 10z"/>
<path d="M928 1613 c7 -3 16 -2 19 1 4 3 -2 6 -13 5 -11 0 -14 -3 -6 -6z"/>
<path d="M807 1475 c-63 -17 -66 -21 -16 -23 42 -2 79 11 79 28 0 12 -2 12
-63 -5z"/>
<path d="M4130 1436 c0 -2 7 -7 16 -10 8 -3 12 -2 9 4 -6 10 -25 14 -25 6z"/>
<path d="M1000 1375 c-7 -9 -10 -18 -7 -21 3 -3 10 4 17 15 13 25 8 27 -10 6z"/>
<path d="M919 1290 c-16 -21 -30 -30 -42 -26 -18 4 -18 4 -1 -15 19 -21 34
-25 34 -9 0 6 10 24 22 40 12 16 19 32 16 36 -4 3 -17 -9 -29 -26z"/>
<path d="M982 1250 c-7 -11 -19 -20 -27 -20 -8 0 -15 -4 -15 -10 0 -5 -16 -28
-36 -50 -20 -22 -34 -43 -31 -46 3 -4 27 6 52 20 46 28 65 27 65 -1 0 -35 12
-2 17 46 6 61 -6 91 -25 61z"/>
<path d="M4130 1157 c0 -16 46 -54 55 -45 3 2 -9 17 -25 33 -23 22 -30 25 -30
12z"/>
<path d="M4150 1098 c1 -16 24 -48 35 -48 4 0 29 -16 55 -35 l48 -35 54 25 53
25 -57 -6 c-56 -5 -98 6 -98 27 0 6 5 7 12 3 7 -4 8 -3 4 4 -4 7 -13 12 -19
12 -7 0 -29 9 -50 20 -25 14 -37 16 -37 8z"/>
<path d="M4340 839 c0 -5 9 -9 20 -9 11 0 20 2 20 4 0 2 -9 6 -20 9 -11 3 -20
1 -20 -4z"/>
<path d="M4239 753 l-46 -4 30 -30 c28 -29 33 -30 81 -23 53 7 49 14 -19 29
l-30 7 30 13 c17 7 23 13 15 12 -8 0 -36 -2 -61 -4z"/>
<path d="M4346 455 c11 -29 40 -36 89 -23 l46 12 -53 13 c-73 17 -89 16 -82
-2z"/>
<path d="M2568 379 c4 -47 4 -48 33 -42 26 5 29 3 29 -19 0 -21 9 -29 56 -47
102 -39 113 -22 27 42 -31 23 -71 56 -88 73 -50 50 -61 49 -57 -7z"/>
<path d="M715 360 c-30 -31 -24 -37 19 -20 16 6 26 17 26 30 0 28 -11 25 -45
-10z"/>
<path d="M620 338 l-75 -39 50 6 c55 7 89 25 105 55 14 26 10 25 -80 -22z"/>
<path d="M2877 273 c-4 -3 -7 -12 -7 -20 0 -11 4 -11 20 -3 11 6 18 15 15 21
-7 11 -19 12 -28 2z"/>
<path d="M850 210 l-35 -29 38 11 c25 8 37 17 37 30 0 23 2 23 -40 -12z"/>
<path d="M3200 170 c-6 -23 -14 -49 -17 -58 -7 -20 29 23 45 54 9 17 8 24 -3
34 -11 9 -16 4 -25 -30z"/>
<path d="M1020 185 c-7 -9 -10 -18 -7 -21 3 -3 10 4 17 15 13 25 8 27 -10 6z"/>
</g>
</svg>
